<?xml version="1.0"?>
<svg width="300" height="300" xmlns="http://www.w3.org/2000/svg" xmlns:svg="http://www.w3.org/2000/svg">
 <g class="layer">
  <title>Layer 1</title>
  <g id="svg_7">
   <g id="svg_1" transform="matrix(-3.1574 0 0 2.58501 413.717 -218.375)">
    <ellipse cx="6.25" cy="-0.5" id="svg_2" rx="20" ry="23" stroke-width="0" transform="matrix(0.760187 0 0 0.770835 55.6647 103.961)"/>
    <path d="m49.73,19.58l-28.31,41.76c-1.27,1.87 -1.27,4.18 0.01,6.06s3.62,3.03 6.16,3.04l56.64,0c2.55,0 4.91,-1.16 6.19,-3.04s1.27,-4.2 -0.01,-6.08l-28.32,-41.74c-1.27,-1.89 -3.63,-3.05 -6.18,-3.05s-4.91,1.16 -6.18,3.05z" id="svg_3" transform="matrix(-0.004729 0.987218 -0.637657 -0.003055 90.559 109.461)"/>
   </g>
   <g id="svg_4" transform="matrix(3.1574 0 0 2.58501 -86.1749 -218.375)">
    <ellipse cx="-6.25" cy="-0.5" id="svg_5" rx="20" ry="23" stroke-width="0" transform="matrix(0.760187 0 0 0.770835 55.6647 103.961)"/>
    <path d="m49.77,34.48l-28.31,41.76c-1.27,1.87 -1.27,4.18 0.01,6.06s3.62,3.03 6.16,3.04l56.64,0c2.55,0 4.91,-1.16 6.19,-3.04s1.27,-4.2 -0.01,-6.08l-28.32,-41.74c-1.27,-1.89 -3.63,-3.05 -6.18,-3.05s-4.91,1.16 -6.18,3.05z" id="svg_6" transform="matrix(-0.004729 0.987218 -0.637657 -0.003055 90.559 109.626)"/>
   </g>
  </g>
 </g>
</svg>